<svg width="12" height="10" viewBox="0 0 12 10" fill="none" xmlns="http://www.w3.org/2000/svg">
<path d="M6.00002 3.04998L6.97502 2.07498C7.08335 1.96665 7.43002 1.68499 7.95002 1.42498C9.90002 0.774986 11.2 2.39998 10.55 4.02498L5.99996 8.57499C4.69996 7.27499 1.71 4.21999 1.44999 3.69999C0.929994 1.61999 3.07505 0.774992 4.37502 1.42498L6.00002 3.04998Z" fill="white"/>
<path d="M6.00026 8.24898L2.14126 4.38999C1.44693 3.69565 1.44693 2.56545 2.14126 1.87111C2.47784 1.53453 2.92503 1.34945 3.4007 1.34945C3.87637 1.34945 4.32392 1.5349 4.66014 1.87111L6.01705 3.22802L6.53324 2.71183L5.17633 1.35492C4.70212 0.880718 4.07131 0.619339 3.4007 0.619339C2.7301 0.619339 2.09928 0.880718 1.62508 1.35492C0.645999 2.334 0.645999 3.92746 1.62508 4.90654L6.00026 9.28172L10.3754 4.90654C10.8496 4.43233 11.111 3.80152 11.111 3.13091C11.111 2.46031 10.8496 1.82949 10.3754 1.35529C9.90123 0.881083 9.27042 0.619704 8.59981 0.619704C7.9292 0.619704 7.29839 0.881083 6.82418 1.35529L6.496 1.68347L7.01219 2.19966L7.34037 1.87148C7.67695 1.5349 8.12414 1.34981 8.59981 1.34981C9.07548 1.34981 9.52303 1.53526 9.85925 1.87148C10.1958 2.20806 10.3809 2.65525 10.3809 3.13091C10.3809 3.60658 10.1955 4.05414 9.85925 4.39035L6.00026 8.24934V8.24898Z" fill="white"/>
</svg>
