<svg width="40" height="40" viewBox="0 0 40 40" fill="none" xmlns="http://www.w3.org/2000/svg">
<g clip-path="url(#clip0_277_1963)">
<path d="M19.9996 7.62939e-05C8.97103 7.62939e-05 2.6302e-05 8.97196 2.6302e-05 19.9996C2.6302e-05 31.0273 8.97103 40.0001 19.9996 40.0001C31.0273 40.0001 39.9991 31.0273 39.9991 19.9996C39.9991 8.97196 31.0273 7.62939e-05 19.9996 7.62939e-05Z" fill="#004170" style="fill:#004170;fill:color(display-p3 0.0000 0.2549 0.4392);fill-opacity:1;"/>
<path d="M19.9723 1.43758C15.0123 1.43758 10.3487 3.369 6.84124 6.87645C3.3338 10.3839 1.40237 15.0475 1.40237 20.0075C1.40237 24.9675 3.3338 29.6303 6.84124 33.1386C10.3487 36.646 15.0123 38.5775 19.9723 38.5775C24.9323 38.5775 29.596 36.646 33.1034 33.1386C36.6108 29.6303 38.5423 24.9675 38.5423 20.0075C38.5423 15.0475 36.6108 10.3839 33.1034 6.87645C29.596 3.369 24.9323 1.43758 19.9723 1.43758ZM19.9723 2.17311C29.8226 2.17311 37.8067 10.1581 37.8067 20.0075C37.8067 29.8569 29.8226 37.8419 19.9723 37.8419C10.1229 37.8419 2.13791 29.8569 2.13791 20.0075C2.13791 10.1581 10.1229 2.17311 19.9723 2.17311Z" fill="white" style="fill:white;fill-opacity:1;"/>
<path d="M14.6232 7.15638L14.7017 5.19231L15.9955 6.67572C15.5272 6.81242 15.0694 6.97293 14.6232 7.15638ZM14.8983 4.18074C14.572 4.28569 14.2492 4.39946 13.9317 4.52381L13.5887 9.73162C13.8973 9.54288 14.2148 9.36738 14.5403 9.20598L14.5897 7.99245C15.2176 7.71552 15.872 7.48622 16.5476 7.30895L17.3475 8.22704C17.6994 8.1512 18.0565 8.08946 18.4181 8.04536L14.8983 4.18074ZM29.0159 7.39741C29.7039 7.23602 30.9677 8.49188 31.2093 9.34207C31.4104 9.18861 31.8575 8.86053 31.8575 8.86053C31.3231 7.34008 29.1959 5.81875 28.1852 6.77124C27.5855 7.33744 27.9259 8.20967 28.4489 8.76087L28.9569 9.29533C29.4754 9.84124 29.9279 10.3845 29.5116 10.7276C29.068 11.0945 27.8271 10.1755 27.081 8.59772L26.4134 9.1013C26.573 9.51669 26.9328 10.1182 27.4161 10.627C27.9638 11.2038 28.5609 11.5795 29.0953 11.6845C29.5151 11.7674 29.934 11.7048 30.2101 11.4481C30.8989 10.8096 30.6484 9.87828 29.5663 8.73883L29.1174 8.26699C28.6191 7.74224 28.8228 7.44327 29.0159 7.39741ZM8.84203 8.73195L10.0935 7.35878C10.3748 7.0501 10.8555 7.02717 11.165 7.30939C11.4737 7.59072 11.4966 8.07138 11.2144 8.38005L9.96296 9.7541L8.84203 8.73195ZM11.6034 11.249L10.5627 10.3009L11.8521 8.88099C12.4359 8.24159 12.4359 7.2115 11.7956 6.62854C11.1553 6.0447 10.1129 6.12496 9.52993 6.76524L7.61526 8.87129L10.9498 11.9095C11.1589 11.6802 11.3785 11.4615 11.6034 11.249ZM19.9097 4.23119H21.6172C22.0352 4.23119 22.3756 4.57161 22.3756 4.98965C22.3756 5.40768 22.0352 5.74811 21.6172 5.74811H19.9097V4.23119ZM19.9097 7.95029V6.56037H21.073L22.0766 8.14696C22.4744 8.21928 22.8651 8.31012 23.2479 8.42036L22.0449 6.50216C22.7346 6.31784 23.3034 5.71019 23.3034 4.98965C23.3034 4.12359 22.4832 3.41805 21.6172 3.41805H18.9811V7.98909C19.2871 7.96528 19.5958 7.95029 19.9089 7.95029L19.9097 7.95029ZM24.9951 9.0722L26.7599 4.82746C26.4706 4.69782 26.1769 4.57699 25.8797 4.4641L24.1158 8.7062C24.4148 8.81644 24.7076 8.93902 24.9951 9.0722Z" fill="white" style="fill:white;fill-opacity:1;"/>
<path d="M23.5253 19.8748C21.9281 17.0729 20.9836 13.7648 20.913 9.89574C20.607 9.8684 20.2974 9.85164 19.9843 9.85164C19.6686 9.85164 19.3573 9.8684 19.0486 9.89662C18.9781 13.7648 18.0335 17.0729 16.4363 19.8748H23.5253ZM23.7594 20.2732H16.2021C14.9498 22.351 13.3323 24.144 11.4414 25.6697C12.259 26.9132 13.3393 27.968 14.6049 28.7538C14.5582 28.4839 14.5326 28.2079 14.5326 27.9257C14.5326 25.1106 16.9729 22.8281 19.9838 22.8281C22.9947 22.8281 25.435 25.1106 25.435 27.9257C25.435 28.2079 25.4095 28.4839 25.3627 28.7538C26.6265 27.9689 27.7069 26.9159 28.5236 25.6732C26.6309 24.1466 25.0126 22.3528 23.7594 20.2732Z" fill="#E30613" style="fill:#E30613;fill:color(display-p3 0.8902 0.0235 0.0745);fill-opacity:1;"/>
<path d="M21.427 9.95207C26.3861 10.6532 30.2005 14.9129 30.2005 20.0652C30.2005 21.7153 29.8071 23.2728 29.1122 24.653C24.6108 21.2761 21.8759 16.5172 21.427 9.95207ZM25.3631 28.7504C25.4098 28.4806 25.4354 28.2045 25.4354 27.9223C25.4354 25.1072 22.9951 22.8247 19.9842 22.8247C16.9733 22.8247 14.533 25.1072 14.533 27.9223C14.533 28.2045 14.5585 28.4806 14.6062 28.7504C13.3397 27.9646 12.2593 26.9099 11.4427 25.6663C13.3326 24.1406 14.9501 22.3476 16.2024 20.2698H23.7597C25.0129 22.3494 26.6313 24.1432 28.5239 25.6699C27.7072 26.9125 26.6278 27.9655 25.3631 28.7504ZM23.6504 29.6006C22.5118 30.0389 21.2771 30.2815 19.9842 30.2815C18.6921 30.2815 17.4574 30.0389 16.3189 29.6006C15.9035 28.97 15.6627 28.2257 15.6627 27.4267C15.6627 25.1601 17.5977 23.3222 19.9842 23.3222C22.3716 23.3222 24.3065 25.1601 24.3065 27.4267C24.3065 28.2257 24.0658 28.97 23.6504 29.6006ZM9.76788 20.0652C9.76788 14.9121 13.584 10.6523 18.544 9.95207C18.0951 16.5172 15.3593 21.277 10.8571 24.6539C10.1621 23.2736 9.76788 21.7162 9.76788 20.0652ZM19.9842 9.84889C20.2981 9.84889 20.6068 9.86477 20.9137 9.89299C20.9834 13.7611 21.9288 17.0693 23.526 19.8712H16.4362C18.0342 17.0693 18.9788 13.7611 19.0493 9.89299C19.3571 9.86565 19.6693 9.84889 19.9842 9.84889ZM19.9842 9.11336C13.9456 9.11336 9.03323 14.0266 9.03323 20.0652C9.03323 26.1038 13.9456 31.0161 19.9842 31.0161C26.0228 31.0161 30.936 26.1038 30.936 20.0652C30.936 14.0266 26.0228 9.11336 19.9842 9.11336Z" fill="white" style="fill:white;fill-opacity:1;"/>
<path d="M21.6497 26.6924C21.1206 26.6924 20.6117 27.1184 20.3171 27.8962C20.3118 27.9068 20.3083 27.92 20.3083 27.9333C20.3074 27.9827 20.3471 28.0232 20.3965 28.0241C20.4318 28.0241 20.4618 28.0047 20.4777 27.9756C20.4777 27.9736 20.4785 27.9731 20.4785 27.9711C20.4794 27.9711 20.4794 27.9701 20.4794 27.9691C20.7051 27.4814 21.1249 27.2521 21.3631 27.2521C21.4971 27.2521 21.6056 27.3605 21.6056 27.4946C21.6056 27.6286 21.4971 27.7371 21.3631 27.7371C21.3507 27.7371 21.3313 27.7356 21.3199 27.7336C21.3093 27.7321 21.2837 27.7257 21.2705 27.7548C21.2608 27.7786 21.2405 27.895 21.3445 28.0141C21.4054 28.0828 21.5306 28.1402 21.6497 28.1402C22.0501 28.1402 22.3738 27.8156 22.3738 27.4161C22.3738 27.0157 22.0501 26.6924 21.6497 26.6924ZM19.6309 27.8959C19.3355 27.118 18.8266 26.6921 18.2983 26.6921C17.8979 26.6921 17.5742 27.0166 17.5742 27.4161C17.5742 27.8156 17.8979 28.1402 18.2983 28.1402C18.4174 28.1402 18.5426 28.0829 18.6035 28.0141C18.7075 27.895 18.6872 27.7786 18.6767 27.7557C18.6643 27.7257 18.6387 27.7319 18.6282 27.7336C18.6167 27.7356 18.5973 27.7372 18.5849 27.7372C18.4509 27.7372 18.3424 27.6287 18.3424 27.4946C18.3424 27.3615 18.4509 27.253 18.5849 27.253C18.8222 27.253 19.2429 27.4814 19.4677 27.97C19.4677 27.971 19.4686 27.971 19.4686 27.972C19.4695 27.973 19.4704 27.974 19.4704 27.9755C19.4854 28.0046 19.5162 28.0249 19.5506 28.024C19.6009 28.023 19.6406 27.9826 19.6397 27.9332C19.6397 27.92 19.6362 27.9074 19.6309 27.8959ZM20.6968 26.3566C20.6968 25.9394 20.1509 24.6368 19.986 24.6368C19.9736 24.6368 19.9604 24.6429 19.9454 24.6553C19.7461 24.8158 19.2743 25.9685 19.2743 26.3565C19.2743 26.6679 19.9031 27.4881 19.9031 27.9343C19.9031 27.9802 19.9401 28.0172 19.986 28.0172C20.031 28.0172 20.0689 27.9802 20.0689 27.9343C20.0689 27.9333 20.068 27.9323 20.068 27.9318C20.0706 27.4855 20.6968 26.667 20.6968 26.3566ZM20.3489 28.6496C20.2298 28.5764 20.139 28.46 20.1064 28.3206C20.0914 28.2677 20.0437 28.228 19.9855 28.228C19.9282 28.228 19.8797 28.2677 19.8647 28.3206C19.8321 28.46 19.7412 28.5764 19.6222 28.6496C19.6001 28.6628 19.5984 28.6725 19.6072 28.6893C19.6795 28.833 19.8021 29.0112 19.952 29.132C19.9732 29.1487 19.9811 29.1496 19.9855 29.1496C19.9908 29.1496 19.9979 29.1486 20.0191 29.132C20.1699 29.0112 20.2916 28.833 20.3639 28.6893C20.3727 28.6725 20.3709 28.6628 20.3489 28.6496Z" fill="#CEAB5D" style="fill:#CEAB5D;fill:color(display-p3 0.8078 0.6706 0.3647);fill-opacity:1;"/>
<path d="M17.741 34.393L17.1307 34.2589L17.1863 34.012L17.7957 34.1496L17.741 34.393ZM10.2128 29.4868C10.0726 28.9638 9.54252 28.4514 9.14212 28.4514C9.05216 28.4514 8.97279 28.477 8.904 28.5281C8.82286 28.5881 8.77524 28.6684 8.76113 28.7654C8.7382 28.9188 8.79993 29.112 8.92693 29.2804L9.10949 29.5247C9.2506 29.7135 9.3873 29.911 9.35819 30.0671C9.34761 30.1297 9.31233 30.18 9.25324 30.2179C9.22149 30.2391 9.18445 30.2488 9.143 30.2488C8.89518 30.2488 8.47626 29.8078 8.26989 29.1746L8.2655 29.1631L8.08559 29.3325L8.08206 29.336L8.08292 29.3395C8.12348 29.4983 8.23108 29.754 8.41188 29.9966C8.60237 30.2506 8.81933 30.427 9.02305 30.4922C9.0892 30.5134 9.15358 30.524 9.21532 30.524C9.30439 30.524 9.38377 30.501 9.44374 30.4578C9.54251 30.3846 9.6016 30.2929 9.61748 30.1835C9.64835 29.9816 9.54075 29.7144 9.2991 29.3916L9.13771 29.1755C9.00895 29.0035 9.01424 28.8915 9.04158 28.828C9.06627 28.7725 9.11742 28.7337 9.17563 28.7266C9.18445 28.7256 9.19415 28.7256 9.20385 28.7256C9.49754 28.7256 9.91381 29.2133 10.0223 29.5916L10.0249 29.6005L10.0337 29.5959C10.0946 29.5606 10.1651 29.5201 10.2092 29.4954L10.2145 29.4919L10.2128 29.4868ZM26.8083 31.695L26.5887 31.807L26.5516 33.0214L25.5471 32.3379L25.3275 32.4508L26.0754 33.9915L26.2994 33.8919L25.7799 32.7965L25.7843 32.794L26.78 33.4687L26.8179 32.2675L26.8223 32.265L27.4053 33.3303L27.6187 33.2095L26.8083 31.695ZM29.7096 29.393L31.3589 29.5067L31.3615 29.5032L30.394 28.6327L30.5589 28.4493L31.8324 29.5949L31.6843 29.7784L30.0183 29.6646L30.0148 29.6681L30.9946 30.5501L30.8217 30.7264L29.5447 29.5764L29.7096 29.393ZM29.0305 30.064L30.1999 31.3225L30.0156 31.4857L28.8497 30.2316L29.0305 30.064ZM28.0207 31.2476L28.1469 31.8896L28.5861 31.5774L28.0207 31.2476ZM29.565 31.8667L29.3498 32.0378L28.8198 31.7132L28.1963 32.1568L28.3171 32.7777L28.0975 32.918L27.7359 31.0747L27.959 30.9169L29.565 31.8667ZM23.5945 33.3093L23.74 33.7926L24.4703 33.573C24.6475 33.5192 24.7207 33.3975 24.6722 33.2378C24.6167 33.0517 24.4606 33.0482 24.3247 33.0897L23.5945 33.3093ZM24.2542 32.8533C24.5161 32.7739 24.808 32.8321 24.9086 33.1664C25.0162 33.5227 24.8116 33.7061 24.6766 33.759L25.212 34.3358L24.9527 34.4284L24.4209 33.8446L23.8115 34.028L24.017 34.7168L23.7815 34.7839L23.2876 33.1443L24.2542 32.8533ZM22.6978 33.2852L22.733 33.5295L21.5883 33.6935L21.6527 34.1389L22.2295 34.056L22.2647 34.3003L21.6879 34.3832L21.762 34.9009L22.9491 34.7307L22.9835 34.9741L21.553 35.1796L21.3096 33.4836L22.6978 33.2852ZM20.0293 34.3209L20.8142 34.3333L20.8072 34.7884C20.8019 35.0962 20.4606 35.2964 20.0311 35.2893C19.5751 35.2814 19.1033 34.9612 19.113 34.3791C19.12 33.8906 19.5169 33.4955 20.0655 33.5043C20.4738 33.5104 20.6855 33.7283 20.7834 33.8262L20.6096 33.999C20.5267 33.9153 20.3971 33.7565 20.0866 33.7512C19.6316 33.7433 19.3643 34.0361 19.359 34.3941C19.3529 34.7302 19.613 35.0353 20.0469 35.0432C20.3441 35.0478 20.5585 34.9136 20.5602 34.7681L20.5638 34.5767L20.0249 34.5679L20.0293 34.3209ZM16.2646 33.0419L16.1835 33.2747L15.6164 33.0771L15.1287 34.475L14.8958 34.3939L15.3827 32.996L14.8156 32.7985L14.8967 32.5656L16.2646 33.0419ZM13.303 31.7751L13.5993 33.4005L13.6037 33.4026L14.2087 32.2508L14.4274 32.3654L13.631 33.8832L13.415 33.7853L13.116 32.1405L13.1125 32.1385L12.4969 33.3079L12.2852 33.1845L13.0851 31.6605L13.303 31.7751ZM12.5511 31.2966L11.5916 32.7518L11.3852 32.6169L12.3448 31.1617L12.5511 31.2966ZM11.0809 30.574L10.49 30.8545L10.9001 31.2029L11.0809 30.574ZM10.8595 32.24L10.6399 32.0751L10.826 31.463L10.243 30.9683L9.66361 31.2434L9.46693 31.0635L11.1779 30.2557L11.3869 30.4329L10.8595 32.24Z" fill="white" style="fill:white;fill-opacity:1;"/>
</g>
<defs>
<clipPath id="clip0_277_1963">
<rect width="39.9991" height="40" fill="white" style="fill:white;fill-opacity:1;"/>
</clipPath>
</defs>
</svg>
