<svg width="40" height="40" viewBox="0 0 40 40" fill="none" xmlns="http://www.w3.org/2000/svg">
<g clip-path="url(#clip0_277_1134)">
<path d="M20.1932 0.00390625C16.1366 0.00390625 8.65665 1.0534 4.84736 3.2685C-0.167939 21.0495 6.65285 33.141 20.1932 40.0039C33.7337 33.141 40.5545 20.9897 35.5391 3.2686C31.726 1.0534 24.2497 0.00390625 20.1932 0.00390625Z" fill="#9C824A" stroke="#9C824A" stroke-width="0.0836939" stroke-miterlimit="282"/>
<path d="M20.1921 1.14844C16.2067 1.14844 11.7195 1.6582 5.84253 4.05693C1.46764 19.5779 6.543 32.018 20.1921 38.7982C33.8412 32.018 38.9127 19.5778 34.5378 4.05693C28.6609 1.6582 24.1774 1.14844 20.1921 1.14844Z" fill="#023474" stroke="#023474" stroke-width="0.0836939" stroke-miterlimit="282"/>
<path d="M20.1727 1.13281C16.206 1.13281 11.9472 1.7212 8.10419 3.17556C4.11886 19.0676 7.05923 30.6717 20.1952 38.7864L20.1727 1.13281ZM20.1952 38.7864C33.331 30.6717 36.2677 19.0676 32.2822 3.17556C28.4393 1.7212 24.1842 1.13281 20.2176 1.13281L20.1952 38.7864Z" fill="white"/>
<path d="M20.1952 38.7864C7.05923 30.6717 4.11886 19.0676 8.10419 3.17556C11.9472 1.7212 16.206 1.13281 20.1727 1.13281L20.1952 38.7864ZM20.1952 38.7864C33.331 30.6717 36.2677 19.0676 32.2822 3.17556C28.4393 1.7212 24.1842 1.13281 20.2176 1.13281L20.1952 38.7864Z" stroke="white" stroke-width="0.0836939" stroke-miterlimit="282"/>
<path d="M20.1942 1.12891C16.2051 1.12891 12.1673 1.73228 8.88612 2.8754C4.75842 19.5321 8.07324 30.7801 20.1979 38.4675L20.1942 1.12891Z" fill="#EF0107" stroke="#EF0107" stroke-width="0.0836939" stroke-miterlimit="282"/>
<path d="M20.2029 1.12891C24.1919 1.12891 28.2298 1.73228 31.5147 2.8754C35.6424 19.5321 32.3275 30.7801 20.1992 38.4675L20.2029 1.12891Z" fill="#DB0007" stroke="#DB0007" stroke-width="0.0836939" stroke-miterlimit="282"/>
<path d="M15.0417 26.265C13.2812 27.472 11.8804 27.9067 10.2548 28.3378L9.27344 26.8123C10.768 26.0552 12.3149 25.0019 13.8731 23.4766C14.0042 24.9569 14.6933 26.0063 15.0417 26.265Z" fill="white"/>
<path d="M14.8025 26.1991C13.132 27.3459 10.8058 28.1443 8.14272 28.5341L7.59961 27.7096C9.88066 26.8548 12.0831 25.5806 13.7912 23.7891C14.0496 24.9359 14.4429 25.6968 14.8025 26.1991Z" fill="#9C824A"/>
<path d="M10.3537 19.1933C10.3537 19.8342 9.83685 20.3515 9.19632 20.3515C8.55579 20.3515 8.03516 19.8342 8.03516 19.1933C8.03516 18.5523 8.55579 18.0352 9.19632 18.0352C9.83685 18.0352 10.3537 18.5523 10.3537 19.1933Z" fill="white"/>
<path d="M10.2285 16.9102V21.2805H13.6707C13.8954 19.815 14.727 18.2595 16.611 16.9102H10.2285Z" fill="white"/>
<path d="M10.3653 21.2805C9.59741 21.2917 8.96449 20.3284 8.95319 19.1216C8.9457 17.9146 9.56005 16.9251 10.3317 16.9102C10.3392 16.9102 10.3466 16.9102 10.3579 16.9102" fill="white"/>
<path d="M9.86488 19.1967C9.86488 19.6915 9.50531 20.0889 9.0633 20.0889C8.6213 20.0889 8.26172 19.6916 8.26172 19.1967C8.26172 18.7019 8.6213 18.3047 9.0633 18.3047C9.50531 18.3046 9.86488 18.7019 9.86488 19.1967Z" fill="#9C824A"/>
<path d="M10.3203 17.1406V21.0685H13.7364C14.006 19.7643 14.669 18.3775 16.3245 17.1406H10.3203Z" fill="#9C824A"/>
<path d="M10.449 21.0686C9.72607 21.0837 9.13431 20.2141 9.12312 19.1308C9.11563 18.0477 9.69621 17.1555 10.4191 17.1407C10.4265 17.1407 10.434 17.1407 10.4415 17.1407" fill="#9C824A"/>
<path d="M26.7271 22.3035C26.7271 25.9506 23.7757 28.904 20.1311 28.904C16.4904 28.904 13.5352 25.9506 13.5352 22.3035C13.5352 18.6567 16.4904 15.7031 20.1311 15.7031C23.7757 15.7031 26.7271 18.6567 26.7271 22.3035Z" fill="white"/>
<path d="M26.384 22.3063C26.384 25.7621 23.5859 28.5618 20.1325 28.5618C16.6828 28.5618 13.8848 25.7621 13.8848 22.3063C13.8848 18.8544 16.6828 16.0508 20.1325 16.0508C23.5859 16.0507 26.384 18.8506 26.384 22.3063Z" fill="#9C824A"/>
<path d="M25.3459 22.3073C25.3459 25.1896 23.0123 27.5248 20.132 27.5248C17.2554 27.5248 14.9219 25.1896 14.9219 22.3073C14.9219 19.4249 17.2554 17.0898 20.132 17.0898C23.0123 17.0898 25.3459 19.4249 25.3459 22.3073Z" fill="white"/>
<path d="M25.0026 22.3023C25.0026 24.9934 22.8225 27.1711 20.1331 27.1711C17.4475 27.1711 15.2676 24.9934 15.2676 22.3023C15.2676 19.6112 17.4475 17.4336 20.1331 17.4336C22.8225 17.4335 25.0026 19.6112 25.0026 22.3023Z" fill="#9C824A"/>
<path d="M22.1618 22.3049C22.1656 23.4256 21.2554 24.3365 20.1354 24.3402C19.0119 24.3402 18.1016 23.4294 18.1016 22.3087V22.3049C18.1016 21.1842 19.0081 20.2734 20.1316 20.2734C21.2515 20.2698 22.1617 21.1806 22.1617 22.3012C22.1618 22.3049 22.1618 22.3049 22.1618 22.3049Z" fill="white"/>
<path d="M21.9227 22.3033C21.9227 23.2929 21.1247 24.0949 20.136 24.0949C19.1472 24.0949 18.3456 23.2967 18.3418 22.3072V22.3034C18.3418 21.3139 19.1434 20.5117 20.1322 20.5117C21.121 20.5117 21.9227 21.3101 21.9227 22.2996V22.3033Z" fill="#9C824A"/>
<path d="M21.0539 22.3047C21.0539 22.8107 20.6419 23.2229 20.1325 23.2266C19.6269 23.2266 19.2148 22.8145 19.2148 22.3047C19.2148 21.7951 19.6269 21.3865 20.1325 21.3828C20.6418 21.3827 21.0539 21.7951 21.0539 22.3047Z" fill="white"/>
<path d="M20.7982 22.3037C20.7982 22.671 20.5023 22.9709 20.1315 22.9709C19.7645 22.9709 19.4648 22.6747 19.4648 22.3037C19.4648 21.9366 19.7645 21.6367 20.1315 21.6367C20.4985 21.6366 20.7982 21.9327 20.7982 22.3037Z" fill="#9C824A"/>
<path d="M20.8175 17.3242H19.4316V20.5587H20.8175V17.3242Z" fill="white"/>
<path d="M20.6035 16.8594H19.6484V20.971H20.6035V16.8594Z" fill="#9C824A"/>
<path d="M23.9951 19.1484L24.7517 20.3103L22.0399 22.0721L21.2871 20.9101L23.9951 19.1484Z" fill="white"/>
<path d="M24.4988 19.0781L25.0194 19.8802L21.5734 22.1216L21.0527 21.3158L24.4988 19.0781Z" fill="#9C824A"/>
<path d="M18.1876 22.5664L18.9292 23.7358L16.1987 25.4675L15.457 24.2943L18.1876 22.5664Z" fill="white"/>
<path d="M18.6521 22.5L19.1652 23.3096L15.6968 25.5097L15.1836 24.7001L18.6521 22.5Z" fill="#9C824A"/>
<path d="M20.8175 24.1602H19.4316V27.3946H20.8175V24.1602Z" fill="white"/>
<path d="M20.6035 23.6992H19.6484V27.8071H20.6035V23.6992Z" fill="#9C824A"/>
<path d="M18.7799 23.8164C18.9672 23.9738 19.1731 24.1162 19.4316 24.225L19.4241 27.111C18.1168 26.9423 17.128 26.2977 16.3789 25.3795L18.7837 23.8164" fill="#EF0107"/>
<path d="M18.7799 23.8164C18.9672 23.9738 19.1731 24.1162 19.4316 24.225L19.4241 27.111C18.1168 26.9423 17.128 26.2977 16.3789 25.3795L18.7837 23.8164" stroke="#EF0107" stroke-width="0.032876" stroke-miterlimit="282"/>
<path d="M21.4798 23.8242C21.2888 23.9779 21.0865 24.1241 20.8281 24.229L20.8318 27.1151C22.139 26.9464 23.128 26.3018 23.8771 25.3835L21.4761 23.8243" fill="#DB0007"/>
<path d="M21.4798 23.8242C21.2888 23.9779 21.0865 24.1241 20.8281 24.229L20.8318 27.1151C22.139 26.9464 23.128 26.3018 23.8771 25.3835L21.4761 23.8243" stroke="#DB0007" stroke-width="0.032876" stroke-miterlimit="282"/>
<path d="M22.1346 22.6144L24.9962 22.2695C25.0187 22.9853 24.8463 23.6151 24.6028 24.2186L22.127 22.6144" fill="#DB0007"/>
<path d="M22.1406 22.6041C22.1518 22.5592 22.1481 22.518 22.1669 22.3868L24.9912 22.0195C25.0024 22.1507 24.9949 22.1994 24.9912 22.2593L22.1406 22.6041Z" fill="white" stroke="white" stroke-width="0.032876" stroke-miterlimit="282"/>
<path d="M26.3203 20.2266H30.0248C29.9086 20.665 29.7962 21.111 29.2643 21.3098C28.414 21.6285 26.6499 21.9357 26.6499 21.9357C26.6161 21.4521 26.5075 20.7961 26.3203 20.2266Z" fill="white"/>
<path d="M23.7383 16.8477L33.4169 16.8588L33.0761 20.397L26.465 20.7419C26.1092 19.1602 24.9067 17.6498 23.7383 16.8477Z" fill="white"/>
<path d="M24.084 17.0977L36.4408 17.1088L35.9688 19.9913L26.38 20.4636C26.0017 19.0317 25.1365 17.986 24.084 17.0977Z" fill="#9C824A"/>
<path d="M26.3203 20.2266H29.7324C29.6202 20.6163 29.5414 20.9723 29.0396 21.1485C28.2418 21.4333 26.6349 21.6583 26.6349 21.6583C26.5675 21.1899 26.4701 20.7138 26.3203 20.2266Z" fill="#9C824A"/>
<path d="M22.5743 11.7083C22.5743 11.8658 22.5406 12.2968 22.522 12.4167H24.4398C24.3234 11.9068 24.271 11.1986 24.2561 10.6513C24.2561 10.6888 24.2224 9.55307 24.2224 9.55307C24.2224 9.47434 24.2561 9.35444 24.3048 9.31698C24.3723 9.23824 24.4398 9.23824 24.5222 9.23824C24.6045 9.20078 24.7544 9.20078 24.773 9.51191L24.8218 10.6888C24.8405 11.2397 24.8405 11.9857 24.773 12.4167H26.6197C26.6046 12.2592 26.5523 11.8657 26.5373 11.7495C26.7695 12.2592 27.2714 12.5328 27.9381 12.5328C28.3352 12.5328 28.6385 12.379 28.8708 12.2217C28.8708 12.2591 28.9682 12.4167 28.9682 12.4167H32.3992C32.2494 11.9068 32.1519 11.1986 32.0996 10.6513L31.6163 6.80574L29.8521 6.49091C30.0021 7.00067 30.1032 7.74653 30.1667 8.25629L30.4364 10.7301C30.4851 11.1611 30.5189 11.6334 30.5189 12.143V12.1805L30.4514 12.023C30.3166 11.7082 30.2528 11.3185 30.2004 10.73L30.1367 9.94283C30.0356 8.68721 29.3539 8.13988 27.8519 8.13988C27.6047 8.13988 26.9717 8.17735 26.5859 8.29735L26.687 9.70663L27.0879 9.47423C27.4213 9.27561 27.6685 9.19687 27.968 9.19687C28.2041 9.19687 28.3538 9.27571 28.4213 9.43307C28.1367 9.47423 27.8219 9.55297 27.4699 9.70663C26.938 9.94273 26.6046 10.2987 26.4548 10.6886V10.6511L26.4024 9.35423C26.3725 8.52964 25.8369 7.98241 25.0202 7.98241C24.657 7.98241 24.3234 8.09861 24.0239 8.29724C24.0052 8.25597 23.9902 8.2184 23.9715 8.17724L23.904 8.01977L22.372 7.94104C22.4394 8.2184 22.5406 9.00183 22.5556 9.2755C22.4731 8.88563 22.2559 8.4546 21.8551 8.13977C21.5405 7.94115 21.1397 7.82495 20.724 7.82495C20.1583 7.82495 19.574 8.06104 19.1919 8.4546C18.7912 8.84436 18.5926 9.39539 18.5739 10.0214C18.4241 9.86389 18.2256 9.71022 17.9933 9.63159L17.2928 9.2755H17.2592C17.0944 9.19666 17.0756 9.15919 17.0756 9.12173C17.0944 9.04299 17.2592 8.96426 17.4765 8.96426C17.7761 8.96426 18.1919 9.12173 18.5252 9.31666L18.5589 8.06104C18.3079 7.94104 17.9596 7.86611 17.4577 7.86611C17.1917 7.86611 16.6936 7.90357 16.2591 8.13967C16.1429 8.2184 16.0418 8.29714 15.9444 8.37587L15.9594 8.01967C15.5587 7.94473 15.1279 7.94473 14.596 8.4545C14.5773 8.41323 14.5435 8.2183 14.5098 8.13967L12.8618 8.2184C12.9779 8.687 12.9966 9.35413 12.9629 9.94262L12.9292 10.5723V10.651C12.9105 10.9658 12.8956 11.3181 12.8618 11.633C12.7269 11.1981 12.5809 10.6097 12.461 10.1413L11.6445 6.45312L9.31468 6.80542C9.32967 6.84289 9.36334 6.96289 9.38213 7.07898C9.39722 7.23645 9.39722 7.55128 9.17991 8.2184C8.79785 9.2755 8.26593 10.8871 7.74909 12.0227C7.68165 12.1802 7.54688 12.4163 7.54688 12.4163H9.36344C9.39722 12.1426 9.51331 11.6704 9.62941 11.318C9.88038 11.318 10.5284 11.318 10.8279 11.2768C10.8954 11.5541 10.9628 11.9064 10.9816 12.1425L11.0116 12.4162H14.6448C14.5624 11.8277 14.5961 11.0443 14.6261 10.6095C14.6598 10.0998 14.7609 9.74748 14.9782 9.55254C15.143 9.35392 15.3265 9.31645 15.4614 9.31645C15.4427 10.021 15.8922 10.336 16.2929 10.5308L17.0083 10.8868C17.2593 11.0443 17.2593 11.0817 17.2593 11.1605C17.2443 11.2767 17.042 11.3179 16.8585 11.3179C16.4765 11.3179 15.9595 11.0817 15.3939 10.4559L15.3603 12.1013C15.8098 12.3373 16.3754 12.4535 16.8773 12.4535C17.7089 12.4535 18.5928 12.0637 18.8251 11.3178C19.2408 12.1011 20.0574 12.4535 20.859 12.4535C21.5742 12.4542 22.106 12.2217 22.5743 11.7083ZM10.0639 10.1003C10.165 9.82674 10.2473 9.59054 10.3972 9.15951C10.4983 9.59054 10.547 9.86421 10.5957 10.0628C10.3972 10.1003 10.2961 10.1003 10.0639 10.1003ZM20.2595 9.66927C20.2595 9.12204 20.458 8.88595 20.6566 8.88595C20.7241 8.88595 20.8738 8.84468 20.9412 9.12204C20.9748 9.23824 20.9898 9.31698 20.9898 9.35444C20.9898 9.51191 20.9075 9.55307 20.8064 9.55307V9.59054C20.8064 9.59054 20.5254 9.66927 20.2595 9.78917C20.2595 9.74801 20.2595 9.71054 20.2595 9.66927ZM22.1585 10.8087C21.8063 11.1198 21.5554 11.3185 21.1397 11.3185C20.8064 11.2772 20.6078 11.0823 20.4917 10.8087C20.8401 10.6888 22.1885 10.179 22.5742 10.0216C22.5742 10.3364 22.5893 10.6887 22.5893 10.6887V11.3559L22.1585 10.8087ZM28.3687 11.356C28.0542 11.356 27.9867 11.1198 27.9717 10.9662C27.9867 10.8087 28.0353 10.5726 28.5372 10.4152C28.5523 10.6102 28.5708 10.7675 28.5708 10.7675V10.9249C28.5859 11.0448 28.5859 11.161 28.6008 11.2772C28.5373 11.3185 28.4549 11.3185 28.3687 11.356Z" fill="#9C824A"/>
<path d="M18.274 8.25683C18.1092 8.21936 17.8583 8.14062 17.4575 8.14062C17.1429 8.14062 16.7271 8.21936 16.4086 8.37683C16.0416 8.61292 15.7756 8.92405 15.7606 9.28015C15.727 9.82738 16.0116 10.0635 16.4273 10.2584C16.7083 10.4159 16.9779 10.5732 17.1428 10.652C17.36 10.7682 17.5585 10.8881 17.5435 11.1617C17.5248 11.4354 17.2739 11.634 16.8581 11.634C16.5098 11.634 16.0116 11.3979 15.6595 11.083L15.6445 11.9076C15.9442 12.0651 16.4273 12.1437 16.8768 12.1437C17.6409 12.1437 18.5923 11.7914 18.6073 10.9255C18.626 10.2584 18.1579 10.0222 17.8769 9.86854C17.5923 9.74865 17.3075 9.59128 17.1766 9.55371C17.0417 9.47498 16.7757 9.39635 16.7945 9.08142C16.8245 8.80785 17.1429 8.68785 17.4762 8.68785C17.7571 8.68785 18.0418 8.76659 18.259 8.88648" fill="white"/>
<path d="M11.4317 6.80469L9.66375 7.04078C9.69752 7.27698 9.63008 7.74548 9.44655 8.2964C9.08328 9.35339 8.48391 11.1187 8.01562 12.1419H9.11694C9.18059 11.7859 9.26301 11.4748 9.43156 11.0437L11.0647 11.0025C11.1283 11.3173 11.2482 11.8271 11.2632 12.1419H12.7465C12.563 11.7072 12.3308 10.8075 12.181 10.1779L11.4317 6.80469ZM9.66375 10.3729L10.4653 8.06031L10.9486 10.3355" fill="white"/>
<path d="M15.6609 8.25781L15.6272 9.04494C15.3612 9.00378 15.0279 9.0824 14.762 9.35607C14.5297 9.59217 14.3799 9.94457 14.3463 10.5742C14.3125 11.084 14.2975 11.6725 14.3275 12.1447H13.0801C13.1625 11.6725 13.1963 11.1251 13.2112 10.6118L13.2448 9.98583C13.2785 9.47607 13.2785 8.96631 13.1962 8.49412L14.2974 8.45665C14.3461 8.61412 14.3798 8.88768 14.3611 9.16124C14.8443 8.41517 15.3125 8.25781 15.6609 8.25781Z" fill="white"/>
<path d="M31.3694 7.04238L30.2344 6.84375C30.3506 7.35731 30.3842 7.70961 30.4517 8.21926L30.7178 10.6893C30.7701 11.1991 30.8189 11.6714 30.8038 12.1436H32.0362C31.9163 11.6714 31.8676 11.1991 31.8189 10.6893" fill="white"/>
<path d="M26.2867 12.1446C26.223 11.6724 26.1892 11.2001 26.1704 10.6903L26.1218 9.39723C26.0881 8.68884 25.6874 8.29908 25.0205 8.29908C24.6573 8.29908 24.2227 8.41528 23.8557 8.88747C23.8407 8.76758 23.7883 8.45644 23.7209 8.29908L22.7246 8.25781C22.8069 8.73011 22.8407 9.1986 22.8556 9.70837L22.8744 10.6903C22.8894 11.2001 22.8744 11.6724 22.8407 12.1446H24.088C24.0242 11.6724 23.9906 11.2001 23.9718 10.6903L23.9381 9.59217C23.9231 9.1986 24.2228 8.92494 24.5225 8.92494C24.8708 8.92494 25.0393 9.16103 25.0544 9.51343L25.1068 10.6903C25.1219 11.2001 25.1219 11.6724 25.0881 12.1446" fill="white"/>
<path d="M30.1855 12.1435C30.0357 11.7499 29.9533 11.2777 29.9195 10.7679L29.8519 9.98451C29.7845 9.04372 29.3877 8.41406 27.8518 8.41406C27.5859 8.41406 27.2038 8.45533 26.8893 8.53026L26.938 9.23865C27.2525 9.04372 27.571 8.88636 27.9717 8.88636C28.3875 8.88636 28.7359 9.08129 28.7696 9.66968C28.3688 9.71095 28.0017 9.78588 27.586 9.98451C27.1216 10.1794 26.6383 10.573 26.687 11.1989C26.7356 11.9073 27.2713 12.2221 27.9381 12.2221C28.4549 12.2221 28.8033 11.986 29.0018 11.7499C29.0355 11.9073 29.0879 12.0235 29.1366 12.1435H30.1855ZM28.3688 11.6337C28.0016 11.6337 27.7022 11.4351 27.6871 11.004C27.6871 10.573 27.9531 10.2207 28.8033 10.1007L28.8521 10.7679C28.8707 11.004 28.8707 11.1615 28.9044 11.3564C28.7847 11.5138 28.5861 11.5925 28.3688 11.6337Z" fill="white"/>
<path d="M21.6899 8.37892C21.4053 8.1803 21.0719 8.10156 20.7236 8.10156C19.9071 8.10156 18.8245 8.69006 18.8582 10.1818C18.8732 11.7111 20.0418 12.1833 20.8584 12.1833C21.5738 12.1833 22.0084 11.9096 22.3566 11.5573L22.1056 11.2012C21.9221 11.3587 21.6224 11.5948 21.1392 11.5948C20.6223 11.5573 20.2927 11.2012 20.1092 10.654L22.3715 9.82937C22.3041 9.08362 22.0382 8.65259 21.6899 8.37892ZM20.9071 9.82948L20.0081 10.1818C19.9894 10.0244 19.9744 9.86694 19.9744 9.67201C19.9744 8.76869 20.4725 8.61132 20.641 8.61132C20.9071 8.57386 21.1392 8.73122 21.2253 9.04605C21.3228 9.39845 21.2891 9.71328 20.9071 9.82948Z" fill="white"/>
<path d="M15.5781 20.0488L16.3384 18.8906L19.0428 20.6597L18.2824 21.8216L15.5781 20.0488Z" fill="white"/>
<path d="M15.3262 19.6459L15.8506 18.8438L19.2853 21.0963L18.7609 21.8985L15.3262 19.6459Z" fill="#9C824A"/>
<path d="M21.3496 23.7362L22.1099 22.5742L24.8142 24.3471L24.0539 25.5091L21.3496 23.7362Z" fill="white"/>
<path d="M21.0977 23.3372L21.6221 22.5352L25.0569 24.7877L24.5325 25.5861L21.0977 23.3372Z" fill="#9C824A"/>
</g>
<defs>
<clipPath id="clip0_277_1134">
<rect width="40" height="40" fill="white"/>
</clipPath>
</defs>
</svg>
