<svg width="24" height="24" viewBox="0 0 24 24" fill="none" xmlns="http://www.w3.org/2000/svg">
<rect width="24" height="24" rx="12" fill="url(#paint0_linear_277_1209)"/>
<path fill-rule="evenodd" clip-rule="evenodd" d="M13.4842 4.6877C12.9925 4.8519 12.5695 5.08485 12.2301 5.40151C12.7951 5.60807 13.3988 5.77585 13.8718 6.07447C13.1437 6.07183 12.5138 6.0977 11.8529 6.1866C11.7213 6.20438 11.5462 6.19962 11.4756 6.23765C11.393 6.28206 11.2819 6.5264 11.2206 6.6353C10.981 7.06188 10.8575 7.5629 10.7209 8.07303C10.3114 7.72285 9.93994 7.13786 9.61971 6.62509C8.95577 6.79048 8.36304 7.02708 7.80469 7.29806C8.16499 6.75424 8.72845 6.32528 9.25261 5.91129C9.14252 5.65427 8.98368 5.44609 8.804 5.25875C9.29268 5.14542 9.88923 5.10127 10.4558 5.12619C10.5394 5.12985 10.6281 5.15563 10.7107 5.14661C10.8605 5.13028 11.0486 5.02912 11.2206 4.97322C11.8788 4.75959 12.691 4.65146 13.4842 4.6877Z" fill="white"/>
<path fill-rule="evenodd" clip-rule="evenodd" d="M16.3806 5.9933C16.7178 6.26657 16.9994 6.69647 17.2269 7.08434C17.3082 7.22301 17.3544 7.38313 17.4411 7.50241C17.549 7.65095 17.7478 7.75781 17.8897 7.90006C18.3101 8.32171 18.6674 8.82222 18.9195 9.40917C18.6652 9.22506 18.3605 9.09132 17.9815 9.03185C18.095 9.63845 18.1808 10.4561 18.1752 11.1221C18.0455 10.963 17.9638 10.7594 17.8591 10.5715C17.5479 10.0125 17.1868 9.45579 16.819 8.95017C16.0625 8.96183 15.3484 9.09498 14.6879 9.2357C14.9445 8.89334 15.3199 8.50539 15.6056 8.0937C15.6481 8.03253 15.8226 7.82417 15.8198 7.74701C15.8176 7.68541 15.6785 7.56783 15.6158 7.50224C15.113 6.97595 14.5538 6.49041 13.9335 6.09514C14.7723 6.13708 15.613 6.46055 16.2889 6.75789C16.3843 6.55286 16.4278 6.26155 16.3806 5.9933Z" fill="white"/>
<path fill-rule="evenodd" clip-rule="evenodd" d="M7.42705 6.13728C7.19837 6.52719 6.90715 6.94296 6.74389 7.43224C7.03859 7.40059 7.37082 7.31824 7.7329 7.32011C7.43122 7.58351 7.05578 7.86197 6.71326 8.16646C6.61432 8.25435 6.44297 8.37831 6.38699 8.4724C6.29392 8.62869 6.27614 8.97147 6.24423 9.1862C6.19149 9.54115 6.15414 9.83279 6.16265 10.2161C6.01308 10.0672 5.84991 9.8037 5.72416 9.56352C5.70596 9.52873 5.62862 9.32284 5.60182 9.31875C5.56651 9.31339 5.40266 9.55425 5.36727 9.60427C5.15594 9.90332 4.94588 10.2173 4.79632 10.5628C5.10115 8.5562 6.17005 7.22559 7.42705 6.13728Z" fill="white"/>
<path fill-rule="evenodd" clip-rule="evenodd" d="M10.7114 8.10603C11.1177 8.73645 11.4767 9.41409 11.9248 10.0026C12.791 9.72344 13.6785 9.46548 14.6167 9.25823C14.602 9.36441 14.4989 9.42915 14.4332 9.51312C14.0181 10.0432 13.6161 10.5993 13.2096 11.165C13.1657 11.2261 13.018 11.3971 13.0159 11.4505C13.0132 11.5176 13.1658 11.6652 13.2197 11.736C13.6956 12.3594 14.2936 12.9677 14.8002 13.5205C13.9873 13.3735 13.1769 13.1808 12.3938 12.9698C12.2979 12.944 12.1166 12.8749 12.0573 12.8882C11.9633 12.9095 11.7728 13.3023 11.7209 13.3879C11.4102 13.9 11.0776 14.4219 10.793 14.948C10.611 14.2827 10.4661 13.5219 10.3954 12.7149C10.3862 12.6094 10.3953 12.4321 10.3648 12.3784C10.3186 12.2969 9.91844 12.212 9.81422 12.1744C9.2636 11.9759 8.72584 11.7358 8.20312 11.5219C8.87412 11.1664 9.62101 10.8868 10.3342 10.5736C10.3777 9.66422 10.5036 8.8667 10.7114 8.10603Z" fill="white"/>
<path fill-rule="evenodd" clip-rule="evenodd" d="M6.14287 10.2556C6.20787 10.731 6.21867 11.2607 6.32638 11.6933C6.91171 11.6091 7.50214 11.53 8.16174 11.5199C7.73763 11.9093 7.21534 12.3858 6.79541 12.8863C6.74223 12.9497 6.63972 13.061 6.63231 13.1106C6.61896 13.1994 6.70378 13.3619 6.73424 13.4675C6.88669 13.9957 7.08211 14.4676 7.32569 14.895C6.86287 14.6305 6.40593 14.36 6.00011 14.0386C5.77262 14.3889 5.5954 14.7895 5.49025 15.2621C5.30529 14.889 5.18389 14.3578 5.15377 13.7938C5.14365 13.6053 5.18082 13.383 5.14356 13.2126C5.11787 13.095 4.95231 12.9403 4.87846 12.815C4.81738 12.7112 4.66194 12.4776 4.68474 12.3561C4.70337 12.2568 4.90739 12.1726 5.0008 12.1216C5.13761 12.047 5.24591 11.9862 5.36782 11.9482C5.55023 11.2866 5.82945 10.7849 6.14287 10.2556Z" fill="white"/>
<path fill-rule="evenodd" clip-rule="evenodd" d="M18.1546 11.1931C18.2927 11.8248 18.3384 12.4943 18.3892 13.2019C18.7731 13.093 19.0961 12.7804 19.317 12.5085C19.1669 13.2537 18.9002 14.0169 18.4911 14.5172C18.4508 14.5665 18.3796 14.6015 18.3585 14.66C18.3107 14.7917 18.323 14.9697 18.2973 15.1087C18.2195 15.5292 18.1088 15.8972 17.9201 16.2304C17.7514 16.0555 17.5713 15.8042 17.3287 15.6695C16.7611 16.0537 16.1163 16.3605 15.3404 16.5362C15.6464 16.1244 15.9288 15.6754 16.2172 15.2106C16.244 15.1675 16.3334 15.0535 16.3294 15.0169C16.3243 14.9691 16.1881 14.8969 16.1255 14.8435C15.6684 14.4543 15.1895 13.9931 14.851 13.5281C15.4473 13.6015 16.2034 13.6325 16.8393 13.5689C16.9353 13.5593 17.0756 13.5722 17.1248 13.5485C17.1707 13.5263 17.2231 13.3596 17.2675 13.2731C17.5989 12.6277 17.8984 11.876 18.1546 11.1931Z" fill="white"/>
<path fill-rule="evenodd" clip-rule="evenodd" d="M7.33599 14.9062C7.88158 15.394 8.44998 15.8588 9.06942 16.2727C9.71132 15.9085 10.2476 15.4388 10.7824 14.9675C10.689 15.4876 10.6127 16.0006 10.5479 16.5888C10.5324 16.7292 10.4563 17.0272 10.4969 17.1497C10.5249 17.2339 10.7699 17.3172 10.8742 17.374C11.2584 17.5832 11.6637 17.7901 12.057 17.9756C11.4984 18.0139 11.052 18.0534 10.4969 18.047C10.5045 18.4405 10.5756 18.8587 10.7314 19.138C10.0567 18.9629 9.5701 18.5746 9.14072 18.1081C9.08661 18.0494 9.0154 17.9399 8.96733 17.9144C8.89127 17.8741 8.75166 17.8749 8.65127 17.8533C7.87648 17.6864 7.08348 17.3846 6.66295 16.8947C7.16873 17.0255 7.75652 16.8821 8.14149 16.7315C7.8541 16.142 7.54774 15.5714 7.33599 14.9062Z" fill="white"/>
<path fill-rule="evenodd" clip-rule="evenodd" d="M15.3208 16.5469C15.4082 16.9669 15.3704 17.4713 15.3004 17.8827C15.9871 17.757 16.5705 17.5281 17.0542 17.1995C16.5172 17.7672 15.7642 18.2909 14.9434 18.6372C14.1047 18.9912 13.1252 19.2592 11.9967 19.2388C12.4126 19.1211 12.7837 18.9587 13.108 18.7494C12.7515 18.5111 12.3817 18.2861 12.0986 17.9744C12.6359 18.0507 13.2384 18.0812 13.8117 18.0559C13.8666 18.0535 13.9376 18.0698 13.9952 18.0559C14.1058 18.0293 14.2664 17.8204 14.3622 17.7194C14.7019 17.3617 15.0702 16.9324 15.3208 16.5469Z" fill="white"/>
<defs>
<linearGradient id="paint0_linear_277_1209" x1="12" y1="0" x2="12" y2="33.2195" gradientUnits="userSpaceOnUse">
<stop offset="0.237655" stop-color="#0430F7"/>
<stop offset="1" stop-color="#010157"/>
</linearGradient>
</defs>
</svg>
