<svg width="24" height="24" viewBox="0 0 24 24" fill="none" xmlns="http://www.w3.org/2000/svg">
<rect width="24" height="24" rx="12" fill="#51EC86"/>
<path fill-rule="evenodd" clip-rule="evenodd" d="M8.80078 6.55604C10.699 5.50673 12.6461 5.37103 14.4416 5.86058C14.5187 5.2472 14.5624 4.71228 14.9027 3.97448C14.4517 4.30232 14.1626 4.67381 13.8308 5.07527L13.719 3.36444L12.2789 4.96467L11.2932 3.35559L10.6869 5.15508L8.92449 3.91101L9.22109 5.6417C8.8165 5.30587 8.36516 4.97001 7.91235 4.7831C8.26023 5.24149 8.59876 5.87479 8.80078 6.55604Z" fill="#38003D" stroke="#38003D" stroke-width="0.0166771" stroke-linejoin="round"/>
<path fill-rule="evenodd" clip-rule="evenodd" d="M16.1452 7.28221C15.643 6.865 15.1385 6.5008 14.03 6.22808C14.1303 6.44739 14.2133 6.72556 14.2123 7.01549C13.9262 6.71068 13.5791 6.33233 13.155 6.10764C11.7545 5.9242 10.3141 6.27562 9.18575 6.84407C9.66413 6.89963 10.0411 7.27196 10.1682 7.68292C8.81706 6.74078 8.04131 8.0993 8.82372 9.45232C7.98301 9.05145 7.94382 8.07455 8.20001 7.43236C7.56884 7.91153 6.60423 8.83556 6.00311 10.0872L6.77465 10.1961C5.84221 11.2929 5.37262 12.873 5.28149 13.8017L6.53687 13.3948C6.13941 14.8343 6.45764 17.0748 6.96462 17.8928C7.74812 17.2765 8.37657 16.5052 9.02686 15.5264C9.43907 16.8283 9.36493 18.1829 9.04426 19.5641C10.8753 20.6004 13.1541 20.1805 14.6474 19.0549C14.711 19.3215 14.7543 19.4466 14.8789 20.026C16.6912 18.7709 17.3059 17.2352 17.4819 15.7464L18.0714 16.3977C18.8605 13.8493 18.3904 11.7783 16.9885 9.7723L16.9306 10.2402C16.7677 10.0359 16.501 9.78739 16.3768 9.63129C16.3573 9.60683 16.3621 9.59296 16.3494 9.57308C16.4157 9.53261 16.5385 9.47507 16.5707 9.38768C16.5574 9.26604 16.4164 8.95233 16.3122 8.89394C16.0525 8.91826 15.8442 9.14537 15.8424 9.2286C15.7075 9.1011 15.58 8.96006 15.1865 8.81493C15.363 8.99359 15.5326 9.26786 15.6573 9.5114C15.9162 9.70127 16.3495 10.0653 16.6725 10.3971L16.6102 10.4599C16.2559 10.1822 15.3069 10.2058 14.7848 10.4694C14.5307 10.1648 14.2363 9.8265 13.824 9.45337C13.7237 9.28184 13.7144 8.9753 14.0339 8.71023C13.681 8.74167 13.5341 8.89431 13.3679 9.03554C13.1209 8.84928 12.7978 8.6557 12.2739 8.50676C11.8634 8.59011 11.3681 8.85315 11.1773 9.08364C11.6563 9.33983 11.8025 9.41723 12.0932 9.4377C12.52 9.46774 12.8913 9.37089 13.1639 9.54533C13.5023 9.84608 14.1362 10.409 14.2261 10.6647C13.6783 10.3508 12.8578 10.5167 11.9457 10.4692C11.0833 10.366 10.608 9.72783 10.599 9.21391L9.98606 9.11723C10.3308 8.64382 10.7674 8.43324 11.0897 8.32035L10.7531 8.0418C11.2921 7.57832 12.1305 7.20669 12.9837 7.13281C13.5751 7.4253 14.0819 7.74561 14.4294 8.03217C14.5865 7.76981 14.6094 7.48464 14.6287 7.29784C15.303 7.60822 16.0559 8.14017 16.6066 8.70046C16.3857 8.2976 16.2183 7.83279 16.1452 7.28221ZM13.5109 13.5927C13.2522 13.0966 12.9989 12.5349 12.7019 12.0626C13.2762 11.6511 13.8196 11.2247 14.7506 10.9865C14.9473 11.1498 15.2367 11.3456 15.6495 11.4957L15.649 12.4765C15.0635 12.8776 14.4783 13.5312 13.5109 13.5927ZM15.4606 13.4124L16.1697 13.4101C16.2897 13.523 16.5399 13.9059 16.5579 14.2042C16.5021 14.6274 16.174 15.4054 15.5972 15.7024C15.6154 15.3421 15.574 14.8758 15.5016 14.6161C15.1725 14.9868 14.6367 15.1536 14.3605 15.2149C14.2457 14.9088 14.0574 14.5708 13.8738 14.2939C14.3677 14.1914 14.9927 13.8288 15.4606 13.4124ZM16.8444 11.0257C17.3113 12.0152 17.2108 12.9639 16.8831 13.4501C16.7235 13.0849 16.4171 12.7194 16.1571 12.4893L16.1677 11.5286C16.4632 11.3695 16.6646 11.2027 16.8444 11.0257Z" fill="#38003D" stroke="#38003D" stroke-width="0.0166771" stroke-linejoin="round"/>
</svg>
