<svg width="167" height="86" viewBox="0 0 167 86" fill="none" xmlns="http://www.w3.org/2000/svg">
<g clip-path="url(#clip0_49_2859)">
<mask id="mask0_49_2859" style="mask-type:luminance" maskUnits="userSpaceOnUse" x="78" y="-19" width="93" height="101">
<path d="M107.501 -18.9062L170.267 68.7492L99.0939 81.4972L78.3633 47.4712L107.501 -18.9062Z" fill="white"/>
</mask>
<g mask="url(#mask0_49_2859)">
<path d="M100.047 27.2097C99.4806 26.3459 98.7391 26.1077 97.904 26.3256C97.0689 26.5435 96.2009 27.1844 95.3051 28.0888C94.4093 28.9933 93.5843 30.0547 92.777 31.2302C91.9698 32.4057 91.2764 33.5508 90.6336 34.6934L90.2186 35.4281C89.6087 36.5098 89.0216 37.6524 88.513 38.7772C88.0043 39.9021 87.6121 40.9281 87.3236 41.9288C87.0453 42.8991 86.8782 43.8136 86.8782 44.6268C86.8782 45.4401 87.0326 46.1393 87.3995 46.7295C87.7665 47.3198 88.2144 47.5858 88.7205 47.6061C89.2266 47.6264 89.8162 47.3984 90.4362 46.9854C91.0562 46.5725 91.7623 45.9391 92.4582 45.1968C93.1541 44.4546 93.9209 43.5197 94.6244 42.5798L95.1862 41.8274C95.9327 40.8267 96.7121 39.6892 97.446 38.4757C98.1799 37.2623 98.9239 35.8588 99.4857 34.5085C100.047 33.1582 100.485 31.7217 100.622 30.4626C100.759 29.2035 100.604 28.0458 100.05 27.2047M82.7837 54.3449L82.4775 53.8408C81.693 52.5538 81.3135 51.1301 81.2198 49.6024C81.1262 48.0748 81.3286 46.2735 81.7411 44.4292C82.1815 42.4608 82.8647 40.3353 83.6796 38.1692C84.5627 35.8182 85.6079 33.4039 86.6454 31.1416L87.5564 29.1554C88.7787 26.4852 90.3325 23.2703 92.1621 19.868C94.2119 16.0603 96.6387 11.9714 99.3085 8.23715C102.32 4.02412 105.6 0.325364 108.781 -1.75709C112.27 -4.03967 115.431 -4.24741 117.617 -1.17441L118.475 0.0314894C120.695 3.14756 120.725 7.92048 119.326 13.3191C118.037 18.2846 115.616 23.4629 112.817 28.2434C110.334 32.4868 107.599 36.3426 105.05 39.5904C102.778 42.4886 100.632 44.9359 98.853 46.8562L97.532 48.2825C96.0314 49.9039 94.4321 51.5303 92.8808 52.8958C91.4535 54.1499 90.0592 55.1911 88.7762 55.8371C87.5767 56.44 86.4506 56.7137 85.4383 56.5009C84.4261 56.288 83.5733 55.637 82.7837 54.3424" fill="#4574FF"/>
<path d="M89.2884 64.2164L87.0918 60.6139L127.875 18.1289L143.772 40.6128L119.208 54.701L112.603 44.6839L107.468 48.9857L113.245 57.8981L102.21 64.2722L97.7329 57.1406L89.2884 64.2164Z" fill="#4574FF"/>
<path d="M95.4551 74.3207L93.1953 70.6194L145.075 42.4531L162.139 66.5837L131.397 73.1832L124.453 62.6544L118.01 65.2461L124.056 74.569L110.525 77.5153L105.884 70.1254L95.4551 74.3207Z" fill="#4574FF"/>
</g>
<mask id="mask1_49_2859" style="mask-type:luminance" maskUnits="userSpaceOnUse" x="0" y="-19" width="108" height="85">
<path d="M0 14.6334L107.5 -18.9062L78.3624 47.4712L41.7244 65.628L0 14.6334Z" fill="white"/>
</mask>
<g mask="url(#mask1_49_2859)">
<path d="M45.4264 62.8484L42.0734 64.5002L7.15625 18.8738L32.9354 10.3945L41.7242 35.3814L31.7511 39.4576L34.9017 44.8462L43.574 41.1373L47.2965 51.6103L40.6537 54.6859L45.4264 62.8484Z" fill="#4574FF"/>
<path d="M50.9304 32.5578L52.0742 47.8671L54.7744 46.6308L50.9304 32.5578ZM61.0098 55.1658L57.5606 56.8657L56.8115 54.0992L52.6968 56.0879L52.9321 59.1458L49.6347 60.7722L40.4082 7.93572L52.6462 3.91016L61.0072 55.1658" fill="#4574FF"/>
<path d="M65.6025 53.2789L65.2785 53.4385C64.2081 53.968 63.3958 53.9883 62.7682 53.6463C62.1406 53.3043 61.637 52.5189 61.2853 51.4701C60.9082 50.3453 60.6703 48.8708 60.5236 47.2191C60.3616 45.4153 60.3059 43.3835 60.3034 41.3948V39.6493C60.2958 37.2907 60.3515 34.3393 60.5666 30.9775C60.8095 27.1875 61.26 22.825 62.0596 18.3004C62.9631 13.1728 64.2916 7.95145 66.1567 3.54335C68.1862 -1.25237 70.6915 -4.72058 73.5409 -5.63261L74.3912 -5.90368C77.0812 -6.76503 78.6527 -4.85232 79.3917 -1.45504C80.0648 1.64077 80.0142 5.82087 79.6017 10.0947C79.2348 13.9075 78.5819 17.7734 77.8961 21.1378C77.2761 24.1854 76.6156 26.8835 76.0842 28.9001L75.8083 29.9439L71.233 31.9376C71.2811 31.6032 71.3747 30.9699 71.4507 30.2099C71.5266 29.4498 71.5848 28.5049 71.5494 27.6334C71.5139 26.7619 71.3773 25.8904 71.066 25.3407C70.7547 24.7909 70.2436 24.5224 69.4895 24.8315C68.7353 25.1405 68.1179 25.8474 67.5611 26.8379C67.0044 27.8285 66.5691 29.0192 66.2022 30.3391C65.8353 31.659 65.5797 32.9611 65.3696 34.2912C65.1596 35.6212 65.028 36.8068 64.9268 37.9468L64.861 38.6689C64.7674 39.7025 64.7041 40.7513 64.694 41.7089C64.6839 42.6666 64.7243 43.462 64.8382 44.1334C64.9521 44.8047 65.1292 45.2785 65.4025 45.5546C65.6759 45.8308 66.0327 45.8814 66.5185 45.6509C67.0373 45.4052 67.4802 44.9643 67.8572 44.4222C68.2343 43.8801 68.5658 43.2062 68.8366 42.5323C69.1073 41.8584 69.3351 41.1389 69.4996 40.5486C69.6641 39.9584 69.7805 39.4618 69.8311 39.2414L73.8395 37.4098L73.5384 38.5523C73.1892 39.8722 72.7337 41.4632 72.1871 43.0795C71.6759 44.5919 71.0863 46.1246 70.4232 47.5129C69.7957 48.8278 69.0922 50.0337 68.295 51.0242C67.4979 52.0148 66.64 52.7672 65.605 53.2789" fill="#4574FF"/>
<path d="M78.1363 46.727L70.8457 50.3219L86.6569 -7.27228L103.392 -12.7773L91.589 14.9937L84.0503 18.0769L81.8158 24.7194L88.6079 21.8162L83.0482 34.9391L77.5164 37.4953L76.1928 41.4297L81.4514 38.9444L78.1363 46.727Z" fill="#4574FF"/>
</g>
<mask id="mask2_49_2859" style="mask-type:luminance" maskUnits="userSpaceOnUse" x="63" y="68" width="108" height="81">
<path d="M170.268 68.7461L70.2311 148.682L63.0645 104.829L99.095 81.4941L170.268 68.7461Z" fill="white"/>
</mask>
<g mask="url(#mask2_49_2859)">
<path d="M96.6914 83.5675L99.3587 81.8372L161.004 71.3945L146.41 82.7543L119.897 84.5074L126.947 79.5115L120.208 80.4159L113.841 84.8342L102.322 85.6094L107.55 82.1133L96.6914 83.5675Z" fill="#4574FF"/>
<path d="M111.943 89.5411L99.409 88.4644L97.0429 90.0554L111.943 89.5411ZM82.8438 92.5635L86.1335 90.4278L89.0817 90.329L92.7839 87.902L90.3368 87.6968L93.1964 85.8398L141.376 86.6733L132.15 93.8555L82.8438 92.5635Z" fill="#4574FF"/>
</g>
<mask id="mask3_49_2859" style="mask-type:luminance" maskUnits="userSpaceOnUse" x="0" y="14" width="71" height="135">
<path d="M70.229 148.685L0 14.6328L41.7244 65.6275L63.0624 104.832L70.229 148.685Z" fill="white"/>
</mask>
<g mask="url(#mask3_49_2859)">
<path d="M51.3945 83.7463L53.7251 88.0302L39.8423 87.1917L22.7734 54.7617L35.7782 66.4027L42.6158 79.1684L44.6884 80.2477L38.7086 69.1286L43.7698 73.6355L48.3932 82.1806L51.3945 83.7463Z" fill="#4574FF"/>
<path d="M45.1112 72.194L47.3711 76.3488L21.4856 52.312L5.91992 22.7422L24.2009 44.7903L30.6388 56.8113L34.0171 60.4011L28.3486 49.8571L35.6772 58.6834L40.1158 66.8866L45.1112 72.194Z" fill="#4574FF"/>
</g>
</g>
<defs>
<clipPath id="clip0_49_2859">
<rect width="170.266" height="167.592" fill="white" transform="translate(0 -18.9062)"/>
</clipPath>
</defs>
</svg>
